# xmcd
#
# Track frame offsets:
#	150
#	22117
#	40347
#	58792
#
# Disc length: 1073 seconds
#
# Revision: 1
# Processed by: cddbd v1.5PL3 Copyright (c) Steve Scherf et al.
# Submitted via: CDex 1.50Beta5
#
DISCID=32042f04
DTITLE=浅田祐介 - Spiritual pop
DYEAR=1997
DGENRE=Rock
TTITLE0=Spiritual pop
TTITLE1=alphabet Sherbet
TTITLE2=晴れ
TTITLE3=Spiritual pop
EXTD=
EXTT0=
EXTT1=
EXTT2=
EXTT3=
PLAYORDER=
